<?xml version="1.0" encoding="utf-8"?>
<!-- Generator: Adobe Illustrator 26.1.0, SVG Export Plug-In . SVG Version: 6.00 Build 0)  -->
<svg version="1.1" id="Layer_1" xmlns="http://www.w3.org/2000/svg" xmlns:xlink="http://www.w3.org/1999/xlink" x="0px" y="0px"
	 viewBox="0 0 841.89 595.28" style="enable-background:new 0 0 841.89 595.28;" xml:space="preserve">
<style type="text/css">
	.st0{fill:#8AA068;}
	.st1{fill:#7F9276;}
	.st2{fill:#809366;}
	.st3{fill:#FFFFFF;}
</style>
<g>
	<g>
		<path class="st0" d="M249.35,475.81c-1.13,0-2.21,0.01-3.23,0.02c-1.03,0.02-1.95,0.03-2.76,0.05c-0.82,0.02-1.5,0.04-2.04,0.07
			v-0.53l1.26-0.1c1.21-0.13,2.13-0.31,2.76-0.53c0.63-0.22,1.05-0.61,1.26-1.16c0.21-0.55,0.31-1.33,0.31-2.37v-24.81
			c0-1.06-0.1-1.86-0.31-2.39c-0.21-0.53-0.63-0.92-1.26-1.16c-0.63-0.24-1.55-0.41-2.76-0.51l-1.26-0.1v-0.53
			c0.54,0,1.22,0.02,2.04,0.05c0.82,0.03,1.74,0.06,2.76,0.07c1.03,0.02,2.1,0.02,3.23,0.02h0.69h0.63c1.13,0,2.19-0.01,3.17-0.02
			c0.98-0.02,1.86-0.04,2.64-0.07c0.77-0.03,1.41-0.05,1.92-0.05v0.53l-1.07,0.1c-1.76,0.16-2.88,0.49-3.36,0.99
			c-0.48,0.5-0.72,1.52-0.72,3.07v24.81c0,1.54,0.24,2.57,0.72,3.07c0.48,0.5,1.6,0.83,3.36,0.99l1.07,0.1v0.53
			c-0.5-0.03-1.14-0.06-1.92-0.07c-0.77-0.02-1.65-0.03-2.64-0.05c-0.98-0.02-2.04-0.02-3.17-0.02h-0.63H249.35z M267.38,475.95
			v-0.53c1.92-0.16,3.16-0.46,3.7-0.89c0.54-0.43,0.46-1.18-0.25-2.24l-4.65-7c-1.09-1.67-2.16-2.98-3.2-3.91
			c-1.05-0.93-2.2-1.59-3.45-1.98s-2.76-0.58-4.52-0.58h-2.26v-0.53H255c1.34,0,2.52-0.11,3.55-0.34c1.03-0.23,1.98-0.6,2.86-1.11
			c0.88-0.51,1.74-1.17,2.57-1.98l5.15-4.83c1.34-1.29,2.17-2.5,2.48-3.65c0.31-1.14,0.13-2.08-0.56-2.82
			c-0.69-0.74-1.83-1.16-3.42-1.25v-0.53c1.42,0.03,2.8,0.06,4.14,0.1c1.34,0.03,2.68,0.05,4.02,0.05c1.3,0,2.45-0.02,3.45-0.05
			c1-0.03,1.88-0.06,2.64-0.1v0.53c-1.34,0.29-2.48,0.62-3.42,0.99s-1.83,0.86-2.67,1.47c-0.84,0.61-1.8,1.43-2.89,2.46
			l-10.67,10.19l-0.19-0.53c1.46,0.23,2.78,0.63,3.96,1.21c1.17,0.58,2.27,1.36,3.3,2.34c1.03,0.98,2.04,2.23,3.05,3.74l4.46,6.76
			c0.71,1.03,1.35,1.84,1.92,2.44c0.56,0.6,1.16,1.04,1.79,1.33c0.63,0.29,1.4,0.53,2.32,0.72v0.53c-0.8-0.03-1.61-0.06-2.45-0.07
			c-0.84-0.02-1.67-0.03-2.51-0.05c-0.84-0.02-1.7-0.02-2.57-0.02c-0.84,0-1.79,0.01-2.86,0.02
			C271.36,475.85,269.68,475.89,267.38,475.95z"/>
		<path class="st0" d="M311.77,441.92h0.75h0.38c1.26,0,2.48-0.01,3.67-0.02c1.19-0.02,2.28-0.04,3.27-0.07
			c0.98-0.03,1.81-0.05,2.48-0.05v0.53l-2.01,0.14c-1.97,0.16-3.23,0.49-3.8,0.99c-0.56,0.5-0.85,1.5-0.85,3.02v7.39h-6.34v-7.39
			c0-1.06-0.1-1.86-0.31-2.39c-0.21-0.53-0.63-0.92-1.26-1.16c-0.63-0.24-1.55-0.41-2.76-0.51l-1.26-0.1v-0.53
			c0.54,0,1.22,0.02,2.04,0.05c0.82,0.03,1.74,0.06,2.76,0.07C309.56,441.91,310.64,441.92,311.77,441.92z M311.77,475.81
			c-1.13,0-2.21,0.01-3.23,0.02c-1.03,0.02-1.95,0.03-2.76,0.05c-0.82,0.02-1.5,0.04-2.04,0.07v-0.53l1.26-0.1
			c1.21-0.13,2.13-0.31,2.76-0.53c0.63-0.22,1.05-0.61,1.26-1.16c0.21-0.55,0.31-1.33,0.31-2.37v-17.43h6.34v17.52
			c0,1.09,0.1,1.92,0.31,2.49c0.21,0.56,0.68,0.94,1.41,1.13c0.73,0.19,1.81,0.29,3.23,0.29h3.83c1.88,0,3.48-0.17,4.8-0.51
			c1.32-0.34,2.45-0.91,3.39-1.71c0.94-0.8,1.8-1.9,2.57-3.28c0.77-1.38,1.5-3.12,2.17-5.21h0.75c-0.29,2-0.52,3.93-0.69,5.82
			c-0.17,1.88-0.27,3.74-0.31,5.58c-1.59-0.06-3.55-0.1-5.87-0.12c-2.32-0.02-5.18-0.02-8.57-0.02h-10.23H311.77z"/>
		<path class="st0" d="M366.4,475.81c-1.13,0-2.21,0.01-3.23,0.02c-1.03,0.02-1.95,0.03-2.76,0.05c-0.82,0.02-1.5,0.04-2.04,0.07
			v-0.53l1.26-0.1c1.21-0.13,2.13-0.31,2.76-0.53c0.63-0.22,1.05-0.61,1.26-1.16c0.21-0.55,0.31-1.33,0.31-2.37v-24.81
			c0-1.06-0.1-1.86-0.31-2.39c-0.21-0.53-0.63-0.92-1.26-1.16c-0.63-0.24-1.55-0.41-2.76-0.51l-1.26-0.1v-0.53
			c0.54,0,1.22,0.02,2.04,0.05c0.82,0.03,1.74,0.06,2.76,0.07c1.03,0.02,2.1,0.02,3.23,0.02h0.75h0.63c1.17,0,2.26-0.01,3.27-0.02
			c1-0.02,1.92-0.04,2.73-0.07c0.82-0.03,1.5-0.05,2.04-0.05v0.53l-1.26,0.1c-1.21,0.1-2.12,0.27-2.73,0.51
			c-0.61,0.24-1.02,0.63-1.22,1.16c-0.21,0.53-0.31,1.33-0.31,2.39v24.81c0,1.03,0.1,1.82,0.31,2.37c0.21,0.55,0.62,0.93,1.22,1.16
			c0.61,0.23,1.52,0.4,2.73,0.53l1.26,0.1v0.53c-0.54-0.03-1.22-0.06-2.04-0.07c-0.82-0.02-1.73-0.03-2.73-0.05
			c-1-0.02-2.09-0.02-3.27-0.02h-0.63H366.4z M367.02,437.04c-1,0-1.88-0.28-2.64-0.84c-0.75-0.56-1.13-1.23-1.13-2
			c0-0.84,0.38-1.53,1.13-2.08c0.75-0.55,1.63-0.82,2.64-0.82c1.05,0,1.94,0.27,2.67,0.82c0.73,0.55,1.1,1.24,1.1,2.08
			c0,0.8-0.37,1.48-1.1,2.03C368.96,436.77,368.07,437.04,367.02,437.04z"/>
		<path class="st0" d="M431.51,476.58l-27.69-32.39h-0.31v19.7h-0.69v-17.43c0-1.06-0.1-1.86-0.31-2.39
			c-0.21-0.53-0.62-0.92-1.22-1.16c-0.61-0.24-1.52-0.41-2.73-0.51l-1.32-0.1v-0.53c0.59,0,1.28,0.02,2.07,0.05
			c0.79,0.03,1.71,0.06,2.73,0.07c1.03,0.02,2.12,0.02,3.3,0.02h1c0.63,0,1.22-0.02,1.79-0.05c0.57-0.03,1.06-0.06,1.48-0.1
			l21.73,25.54h0.38v-20.86c0-1.48-0.27-2.48-0.82-2.99c-0.54-0.51-1.82-0.85-3.83-1.01l-1.63-0.14v-0.53
			c0.67,0.03,1.58,0.06,2.73,0.1c1.15,0.03,2.44,0.05,3.86,0.05c0.84,0,1.62-0.01,2.35-0.02c0.73-0.02,1.41-0.04,2.04-0.07
			c0.63-0.03,1.15-0.05,1.57-0.05v0.53l-1.38,0.1c-1.17,0.1-2.06,0.27-2.67,0.53c-0.61,0.26-1.02,0.65-1.22,1.18
			c-0.21,0.53-0.31,1.31-0.31,2.34v30.13H431.51z M403.5,471.27c0,1.48,0.28,2.47,0.85,2.97c0.56,0.5,1.87,0.84,3.92,1.04l2.01,0.14
			v0.53c-0.5-0.03-1.11-0.06-1.82-0.07c-0.71-0.02-1.52-0.03-2.42-0.05c-0.9-0.02-1.85-0.02-2.86-0.02c-0.8,0-1.58,0.01-2.35,0.02
			c-0.77,0.02-1.47,0.03-2.07,0.05c-0.61,0.02-1.12,0.04-1.54,0.07v-0.53l1.38-0.1c1.17-0.13,2.06-0.31,2.67-0.56
			c0.61-0.24,1.01-0.63,1.22-1.16c0.21-0.53,0.31-1.31,0.31-2.34v-7.39h0.69V471.27z"/>
		<path class="st0" d="M467.11,475.81c-1.13,0-2.21,0.01-3.23,0.02c-1.03,0.02-1.95,0.03-2.76,0.05c-0.82,0.02-1.5,0.04-2.04,0.07
			v-0.53l1.26-0.1c1.21-0.13,2.13-0.31,2.76-0.53c0.63-0.22,1.05-0.61,1.26-1.16c0.21-0.55,0.31-1.33,0.31-2.37v-24.81
			c0-1.06-0.1-1.86-0.31-2.39c-0.21-0.53-0.63-0.92-1.26-1.16c-0.63-0.24-1.55-0.41-2.76-0.51l-1.26-0.1v-0.53
			c0.54,0,1.22,0.02,2.04,0.05c0.82,0.03,1.74,0.06,2.76,0.07c1.03,0.02,2.1,0.02,3.23,0.02h0.75h0.63c1.17,0,2.26-0.01,3.27-0.02
			c1-0.02,1.92-0.04,2.73-0.07c0.82-0.03,1.5-0.05,2.04-0.05v0.53l-1.26,0.1c-1.21,0.1-2.12,0.27-2.73,0.51
			c-0.61,0.24-1.02,0.63-1.22,1.16c-0.21,0.53-0.31,1.33-0.31,2.39v24.81c0,1.03,0.1,1.82,0.31,2.37c0.21,0.55,0.62,0.93,1.22,1.16
			c0.61,0.23,1.52,0.4,2.73,0.53l1.26,0.1v0.53c-0.54-0.03-1.22-0.06-2.04-0.07c-0.82-0.02-1.73-0.03-2.73-0.05
			c-1-0.02-2.09-0.02-3.27-0.02h-0.63H467.11z M467.74,437.04c-1,0-1.88-0.28-2.64-0.84c-0.75-0.56-1.13-1.23-1.13-2
			c0-0.84,0.38-1.53,1.13-2.08c0.75-0.55,1.63-0.82,2.64-0.82c1.05,0,1.94,0.27,2.67,0.82c0.73,0.55,1.1,1.24,1.1,2.08
			c0,0.8-0.37,1.48-1.1,2.03C469.67,436.77,468.78,437.04,467.74,437.04z"/>
		<path class="st0" d="M505.98,475.81c-1.13,0-2.21,0.01-3.23,0.02c-1.03,0.02-1.95,0.03-2.76,0.05c-0.82,0.02-1.5,0.04-2.04,0.07
			v-0.53l1.26-0.1c1.21-0.13,2.13-0.31,2.76-0.53c0.63-0.22,1.05-0.61,1.26-1.16c0.21-0.55,0.31-1.33,0.31-2.37v-24.81
			c0-1.06-0.1-1.86-0.31-2.39c-0.21-0.53-0.63-0.92-1.26-1.16c-0.63-0.24-1.55-0.41-2.76-0.51l-1.26-0.1v-0.53
			c0.54,0,1.22,0.02,2.04,0.05c0.82,0.03,1.74,0.06,2.76,0.07c1.03,0.02,2.1,0.02,3.23,0.02h0.69h0.63c1.13,0,2.19-0.01,3.17-0.02
			c0.98-0.02,1.86-0.04,2.64-0.07c0.77-0.03,1.41-0.05,1.92-0.05v0.53l-1.07,0.1c-1.76,0.16-2.88,0.49-3.36,0.99
			c-0.48,0.5-0.72,1.52-0.72,3.07v24.81c0,1.54,0.24,2.57,0.72,3.07c0.48,0.5,1.6,0.83,3.36,0.99l1.07,0.1v0.53
			c-0.5-0.03-1.14-0.06-1.92-0.07c-0.77-0.02-1.65-0.03-2.64-0.05c-0.98-0.02-2.04-0.02-3.17-0.02h-0.63H505.98z M524,475.95v-0.53
			c1.92-0.16,3.16-0.46,3.7-0.89c0.54-0.43,0.46-1.18-0.25-2.24l-4.65-7c-1.09-1.67-2.16-2.98-3.2-3.91
			c-1.05-0.93-2.2-1.59-3.45-1.98s-2.76-0.58-4.52-0.58h-2.26v-0.53h2.26c1.34,0,2.52-0.11,3.55-0.34c1.03-0.23,1.98-0.6,2.86-1.11
			c0.88-0.51,1.74-1.17,2.57-1.98l5.15-4.83c1.34-1.29,2.17-2.5,2.48-3.65c0.31-1.14,0.13-2.08-0.56-2.82
			c-0.69-0.74-1.83-1.16-3.42-1.25v-0.53c1.42,0.03,2.8,0.06,4.14,0.1c1.34,0.03,2.68,0.05,4.02,0.05c1.3,0,2.45-0.02,3.45-0.05
			c1-0.03,1.88-0.06,2.64-0.1v0.53c-1.34,0.29-2.48,0.62-3.42,0.99s-1.83,0.86-2.67,1.47c-0.84,0.61-1.8,1.43-2.89,2.46
			l-10.67,10.19l-0.19-0.53c1.46,0.23,2.78,0.63,3.96,1.21c1.17,0.58,2.27,1.36,3.3,2.34c1.03,0.98,2.04,2.23,3.05,3.74l4.46,6.76
			c0.71,1.03,1.35,1.84,1.92,2.44c0.56,0.6,1.16,1.04,1.79,1.33c0.63,0.29,1.4,0.53,2.32,0.72v0.53c-0.8-0.03-1.61-0.06-2.45-0.07
			c-0.84-0.02-1.67-0.03-2.51-0.05c-0.84-0.02-1.7-0.02-2.57-0.02c-0.84,0-1.79,0.01-2.86,0.02
			C527.99,475.85,526.3,475.89,524,475.95z"/>
		<path class="st0" d="M567.26,468.13c-1.05,2.16-1.16,3.85-0.35,5.07c0.82,1.22,2.58,1.95,5.31,2.17l0.75,0.05v0.53
			c-1.42-0.06-2.98-0.1-4.68-0.12c-1.7-0.02-3.17-0.02-4.43-0.02c-1.34,0-2.5,0.02-3.48,0.05c-0.98,0.03-1.83,0.06-2.54,0.1v-0.53
			l0.75-0.1c1.13-0.16,2.12-0.47,2.98-0.94c0.86-0.47,1.66-1.15,2.42-2.05c0.75-0.9,1.49-2.12,2.2-3.67l13.75-27.52h0.63
			l15.51,30.51c0.46,0.9,0.89,1.61,1.29,2.12c0.4,0.52,0.87,0.89,1.41,1.11c0.54,0.23,1.21,0.37,2.01,0.43l1.13,0.05v0.53
			c-0.54,0-1.16-0.01-1.85-0.02c-0.69-0.02-1.44-0.03-2.26-0.05c-0.82-0.02-1.71-0.02-2.67-0.02h-0.56h0.13
			c-1.05,0-2.04,0.01-2.98,0.02c-0.94,0.02-1.82,0.03-2.64,0.05c-0.82,0.02-1.56,0.03-2.23,0.05c-0.67,0.02-1.26,0.02-1.76,0.02
			v-0.53l1.26-0.1c1.76-0.16,2.84-0.51,3.23-1.04c0.4-0.53,0.26-1.57-0.41-3.11l-11.93-23.61l0.82-1.21L567.26,468.13z
			 M569.33,463.11l0.25-0.53h18.77l0.19,0.53H569.33z"/>
		<path class="st0" d="M636.14,476.63c-2.18,0-4.01-0.17-5.49-0.51c-1.49-0.34-2.71-0.67-3.67-0.99c-0.96-0.32-1.8-0.48-2.51-0.48
			c-0.59,0-1.05,0.17-1.38,0.51c-0.34,0.34-0.57,0.81-0.69,1.42h-0.75c0.08-0.74,0.15-1.59,0.19-2.56c0.04-0.97,0.07-2.24,0.09-3.81
			c0.02-1.58,0.03-3.57,0.03-5.99h0.75c0.21,3.64,1.42,6.51,3.64,8.62c2.22,2.11,5.13,3.16,8.73,3.16c2.68,0,4.89-0.64,6.62-1.93
			c1.74-1.29,2.61-2.99,2.61-5.12c0-1.26-0.36-2.38-1.07-3.38c-0.71-1-1.81-1.91-3.3-2.75c-1.49-0.84-3.38-1.62-5.68-2.37
			c-2.64-0.84-4.83-1.78-6.56-2.82c-1.74-1.05-3.04-2.22-3.89-3.52c-0.86-1.3-1.29-2.74-1.29-4.32c0-2.67,1.1-4.79,3.3-6.35
			c2.2-1.56,5.18-2.34,8.95-2.34c2.01,0,3.66,0.16,4.96,0.48c1.3,0.32,2.38,0.65,3.23,0.99c0.86,0.34,1.62,0.51,2.29,0.51
			c0.54,0,0.99-0.17,1.35-0.51c0.35-0.34,0.6-0.81,0.72-1.42h0.69c-0.08,0.71-0.15,1.49-0.19,2.34c-0.04,0.85-0.07,1.92-0.09,3.19
			c-0.02,1.27-0.03,2.9-0.03,4.9H647c-0.17-1.96-0.75-3.68-1.76-5.17c-1-1.48-2.32-2.63-3.96-3.45c-1.63-0.82-3.5-1.23-5.59-1.23
			c-2.6,0-4.62,0.57-6.06,1.71c-1.44,1.14-2.17,2.63-2.17,4.47c0,1.13,0.36,2.18,1.07,3.16c0.71,0.98,1.86,1.91,3.45,2.78
			c1.59,0.87,3.7,1.75,6.34,2.66c2.85,0.97,5.12,1.96,6.81,2.99c1.7,1.03,2.92,2.16,3.67,3.38c0.75,1.22,1.13,2.62,1.13,4.2
			c0,2.96-1.24,5.29-3.71,7C643.78,475.77,640.41,476.63,636.14,476.63z"/>
		<path class="st0" d="M679.72,475.81c-1.13,0-2.21,0.01-3.23,0.02c-1.03,0.02-1.95,0.03-2.76,0.05c-0.82,0.02-1.5,0.04-2.04,0.07
			v-0.53l1.26-0.1c1.21-0.13,2.13-0.31,2.76-0.53c0.63-0.22,1.05-0.61,1.26-1.16c0.21-0.55,0.31-1.33,0.31-2.37v-24.81
			c0-1.06-0.1-1.86-0.31-2.39c-0.21-0.53-0.63-0.92-1.26-1.16c-0.63-0.24-1.55-0.41-2.76-0.51l-1.26-0.1v-0.53
			c0.54,0,1.22,0.02,2.04,0.05c0.82,0.03,1.74,0.06,2.76,0.07c1.03,0.02,2.1,0.02,3.23,0.02h0.75h0.63c1.17,0,2.26-0.01,3.27-0.02
			c1-0.02,1.92-0.04,2.73-0.07c0.82-0.03,1.5-0.05,2.04-0.05v0.53l-1.26,0.1c-1.21,0.1-2.12,0.27-2.73,0.51
			c-0.61,0.24-1.02,0.63-1.22,1.16c-0.21,0.53-0.31,1.33-0.31,2.39v24.81c0,1.03,0.1,1.82,0.31,2.37c0.21,0.55,0.62,0.93,1.22,1.16
			c0.61,0.23,1.52,0.4,2.73,0.53l1.26,0.1v0.53c-0.54-0.03-1.22-0.06-2.04-0.07c-0.82-0.02-1.73-0.03-2.73-0.05
			c-1-0.02-2.09-0.02-3.27-0.02h-0.63H679.72z"/>
	</g>
	<path class="st1" d="M101.02,359.51c0-0.01-0.02-0.02-0.03-0.03L101.02,359.51z"/>
	<path class="st2" d="M165.34,463.91c-18.54,5.89-31.3-19.33-11.22-27.12c-7.91,1.27-12.17,4.86-13.23,10.59
		c-2.83,9.66,4,17.11,16.05,19.18c0.51,0.09,1.03,0.09,1.52,0.25c0.39,0.13,0.89,0.3,1.63,0.54c-19.41,3.49-31.29-20.97-13.12-31.61
		c-5.7-0.4-10.19-0.07-14.26,2.48c-8.87,3.61-14.22,16.32-9.39,25.04c8.05,17.41,32.28,15.63,45.17,4.81
		c1.55-1.07,3.1-2.13,4.64-3.2c-19.81,32.14-78.8,1.81-45.25-28.13c-50.13,38.84,47.57,74.07,54.72,11.92
		C178.62,456.26,173.06,461.36,165.34,463.91z"/>
	<path class="st0" d="M250.61,286.58c24.32-7.45-6.09-23.63-8.21-37.16c3.13-31.08-1.36-62.86-35.94-73.36
		c1.31,1.05,1.84,1.17,3.5,2.09c16.25,9.06,23.04,25.28,27.66,41.62c0.46,8.95-0.79,18.12-1.09,27.46
		c0.39,21.72,31.25,27.19,8.18,38.98c-4.75,5.48,2.86,10.2-2.72,13.82c-6.66,4.33-13.94,3.18-13.53,5.3
		c2.93,5.73,8.13-0.36,12.18,2.39c0.72,3.39-3.72,4.46-3.69,7.47c0.01,0.75-0.14,1.5-0.29,2.23c-0.57,2.64-0.51,5.2-0.1,7.75
		c0.32,1.95-0.13,3.97-1.3,5.57c-8.61,11.8-27.45,2.78-39.52,3.9c-38.19-0.99-51.95,60.03-14.09,71.59
		c-27.79-16.68-20.28-65.38,17.74-66.01c13.59,1.33,42.27,6.25,42.37-13.22c0.01-1.44-0.31-2.86-0.81-4.21
		c-3.11-8.53,14.04-12.6,0.38-18.49C260.19,300.37,239.65,292,250.61,286.58z"/>
	<path class="st0" d="M107.32,360.02c5.51,14.03,15.15,25.69,28.81,32.67c-10.74-10.47-19.96-21.27-24.03-35.82v0
		c-1.34-7.07-1.98-14.05-1.64-21.27c0,0,0,0,0,0c3.69-27.2,23.68-47.09,46.43-60.61c3.06-0.54,4.96-3.73,8.06-3.8
		c-8.7,8.49-16.13,31.71-0.73,36.3c-9.98-14.23,2.01-30.56,13.48-40.97c0,0,0,0,0,0c21.01-16.2,39.75-41.37,34.42-69.27v0
		c-0.82-5.77-11.37-27.37-10.61-18.77c11.26,20.15,5.26,45.67-10.32,61.77c-11.09,10.38-26.92,21.64-42.94,30.07
		C115.16,286.43,92.17,325.35,107.32,360.02z M109.91,332.42c-0.02-0.01-0.01-0.03-0.01-0.05
		C109.91,332.38,109.91,332.4,109.91,332.42z"/>
	<path class="st0" d="M169.19,405.55c-41.46-16.89-60.5-70.23-33.65-107.66c3.13-3.52,2.42-4.42-0.52-0.55
		c-18.22,19.56-23.22,50.8-10.15,74.43c7.35,15.1,20.43,27.1,36.64,32.06c-0.03-0.07-3.09-1.08-3.13-1.15
		C160.78,403.91,166.46,405.76,169.19,405.55z"/>
	<path class="st0" d="M219.62,258.93c1.7-1.15,17,1.41,11.85-1.43c-10.39-5.73-4.4-16.26-13.56-12.28c0,0,0,0,0,0
		c-7.24,1.37-10.66,8-17.47,9.69c-0.67,0.17-0.62,1.14,0.06,1.22c2.91,0.35,5.56-0.51,7.81,1.74c2.9,3.77,6.88,4.3,10.9,4.14
		c0.45-0.02,0.75-0.51,0.54-0.9C219.42,260.49,218.6,259.84,219.62,258.93z"/>
	<path class="st0" d="M121.11,283.69c11.97-11.36,27.95-16.5,40.99-26.29c0,0.01-0.01,0.01-0.01,0.02
		c19.35-11.78,34.49-31.47,37.87-54.29c-1.83-0.04-2.81,6.87-4.29,9.15c-22.12,43.5-90,46.33-100.07,98.86
		c-3.58,15.07-1.8,35.06,6.98,47.33c-4.13-9.28-4.38-19.47-4.39-29.44c0,0,0,0,0,0C99.17,311.26,108.37,295.77,121.11,283.69z"/>
	<path class="st2" d="M228.01,233.08c-6.18-4.94-16.99-2.55-20.2,4.16C223.76,224.68,229.48,245.08,228.01,233.08z"/>
	<path class="st0" d="M344.48,289.74c4.37-1.97,3.13-7.78,5.99-10.96c-1.53,0.44-3.11,0.62-4.39,1.63c-2.34,0.6-1.48,3.13-3.15,4.53
		c1.9-5.85-4.98,1.04-6.7,2.42c1.76-4.09,7.38-7.2,11.72-9c-6.48-2.53-15.1,0.87-16.4,8.08c-0.01-0.06,0.14-0.52,0.12-0.59
		c-0.55,2.5-1.49,7.04-0.87,8.96c3.76-2.7,9.18-1.39,12.8-4.53C343.87,290.05,344.17,289.88,344.48,289.74z"/>
	<path class="st0" d="M377.22,284c4.37-1.97,3.13-7.78,5.99-10.96c-1.53,0.44-3.11,0.62-4.39,1.63c-2.34,0.6-1.48,3.13-3.15,4.53
		c1.9-5.85-4.98,1.04-6.7,2.42c1.76-4.09,7.38-7.2,11.72-9c-6.48-2.53-15.1,0.87-16.4,8.08c-0.01-0.06,0.14-0.52,0.12-0.59
		c-0.55,2.5-1.49,7.04-0.87,8.96c3.76-2.7,9.18-1.39,12.8-4.53C376.62,284.31,376.91,284.14,377.22,284z"/>
	<g>
		<path class="st2" d="M803.83,331.12c-10.15,18.43-1.26,41.66-5.06,61.38c8.34-12.02,11.71-28.17,9.27-46.79l-0.1-1.13
			c-0.03-0.22-0.15-0.98-0.19-1.19l1.05-0.22l-1.09,0.11c0,0,0-0.01,0-0.01c-0.46-4.66-1.62-8.96-3.46-12.88
			C804.07,330.66,803.92,330.91,803.83,331.12z"/>
		<path class="st2" d="M790.55,401.64c1.59-3.64,2.69-7.53,3.34-11.52c1.55-9.44-1.2-18.77-0.76-28.21c0,0,0,0.01-0.01,0.01
			c-0.58-11.64,2.91-23.71,10.58-32.61c-2.45-4.79-5.94-9-10.49-12.58c-11.82-9.31-30.35-13.53-48.35-11.01
			c-8.39,1.17-15.62,6.36-19.84,14.23c-5.03,9.39-7.87,22.45-10.6,35.08c-3.79,17.51-7.38,34.04-16.67,39.78
			c-3.5,2.17-7.62,2.67-12.24,1.49c-6.27-1.6-11.57-6.06-14.55-12.25c-6.01-12.48-5.51-29.04-5.07-43.65
			c0.09-3.05,0.18-5.92,0.2-8.65l0.04-0.37c2.79-13.99,1.23-18.66-0.57-20.12c-2.77-2.23-9.3,0.61-15.61,3.36
			c-8.93,3.89-20.05,8.74-24.75-0.57c-0.69-1.38-0.82-3.01-0.35-4.6c4.42-15.02-1.29-30.82-9.39-36.15
			c-4.68-3.09-9.72-2.6-14.56,1.41c-2.52,2.09-4.07,5.35-4.24,8.94c-1.09,22.72,6.09,26.96,12.43,30.71
			c10.79,6.38,16.36,12.74-4.18,61.05c-3.02,7.94-11.29,26.72-22.28,27.96c-4.93,0.55-9.58-2.37-13.8-8.71l-0.13-0.19l-0.08-0.21
			c-5.5-14.68-5.38-30.29-5.27-45.39c0.07-8.87,0.14-18.05-0.96-26.82c-1.19-9.48-7.92-17.31-16.77-19.5
			c-5.48-1.35-11-0.27-16.4,3.21c-20.98,13.55-35.33,59.02-38.99,78.92l-1.49,8.12l-2.34-7.91c-7.53-25.44-16.12-72.83-15.55-122.67
			c0.01-0.65,0.02-1.32,0.03-1.98c-5.79-4.61-10.39-12.05-12.39-18.91c-9.97-29.35,23.43-50.22,22.12-78.46
			c0.09-1.57-1.39-5.33-0.46-5.84c4.83,12.47,2.84,26.73-3.54,38.2c0,0,0-0.01,0-0.01c-3.77,8.66-10.35,15.83-13.13,24.98
			c-2.96,9.74-3.16,20.17,1.43,29.41c0,0,0,0,0,0c1.79,3.16,3.67,6.33,5.98,9.11c0.78-37.92,7.44-86.98,33.84-112.87
			c17.62-17.28,41.57-21.86,71.23-13.67c-3.82-5.14-8.99-8.7-15.43-10.62c-18.51-5.52-44.14,3.11-61.99,13.04
			C446,170.74,443.55,241.5,448.1,305.98c6.46,39.23-1.13,67.46-22.56,83.93c-3.9,2.86-18.77,8.98-24.51,5.74
			c-1.75-0.99-2.61-2.72-2.42-4.87l0.03-0.31l0.12-0.28c8.1-19.33,11.42-50.36,1.61-69.79c-4.55-9.01-11.54-14.73-20.77-17.01
			c-7.48-0.92-13.49,1.41-17.86,6.96c-9.72,12.34-9.32,37.63-4.77,49.62c5.71,15.03,15.89,28.41,25.95,34.07l1.94,1.09l-1.31,1.8
			c-11.91,16.29-21.97,16.22-28.32,13.29c-18.49-8.54-28.79-52.83-22.69-78.44c2.76-11.56,8.78-17.77,16.92-17.49l0.13,0.01
			c0.96,0.1,1.46,0,1.68-0.06c-0.11-0.52-0.81-1.78-2.45-2.99c-0.92-0.67-4.18-2.76-7.58-1.29l-0.22,0.09l-0.23,0.04
			c-15.43,2.67-23.56,13.8-27.67,22.66c-9.1,19.63-7.97,49.07,2.57,67.01c3.49,6.59,8.92,11.58,15.79,14.7
			c-8.5-18.98-2.99-44.69-16.75-61.65c-0.86-1.32-4.28-3.47-3.83-4.43c11.29,7.17,18.15,19.83,19.82,32.84c0,0-0.01-0.01-0.01-0.01
			c2.11,9.21,1.06,18.88,4.26,27.9c0.95,2.69,2.12,5.28,3.49,7.74c2.02,0.49,4.12,0.87,6.31,1.09c17.46,1.78,36.81-5.65,47.05-18.07
			l0.61-0.74l0.96,0.03c27.7,0.74,48.73-15.19,56.35-42.6l1.57-5.65l2.17,5.45c2.61,6.56,3.84,14.49,5.13,22.88
			c1.52,9.86,3.09,20.06,7.09,27.6c2.06,3.88,5.63,6.84,9.81,8.12c3.91,1.2,7.98,0.84,11.47-1.02c3.82-2.03,6.37-5.47,7.58-10.21
			c-1.35-7.1,3.34-27.54,8.81-44.51c4.42-13.71,13.1-37.06,21.55-39.48c0.5-0.14,1.04-0.23,1.6-0.23c2.44,0,5.3,1.72,7.34,8.23
			c1.04,3.33,1.52,7.07,1.43,11.11c-1.19,50.5,7.9,80.57,24.92,82.51c0.7,0.08,1.41,0.1,2.13,0.09c-3.21-2.52-6.04-5.49-8.16-8.54
			c-18.75-24.69,6.33-55.05-3.86-81.43c-0.41-1.52-3-4.62-2.28-5.39c8.53,10.3,11.15,24.45,8.74,37.35c0,0,0-0.01,0-0.01
			c-0.83,9.41-4.81,18.29-4.54,27.85c0.27,10.17,3.39,20.14,10.67,27.45c0,0,0,0,0,0c0.88,0.79,1.76,1.57,2.66,2.34
			c20.15-4.26,47.49-42.45,59.04-98.34l0.51-2.46l2.27,1.08c0.77,0.37,2.8,0.11,4.28-0.07c2.68-0.34,5.45-0.69,7.03,1.08
			c0.89,0.99,1.14,2.38,0.74,4.11c-2.79,23.03-4.85,49.19,5.93,68.45c5.13,9.18,14.34,15.76,24.63,17.62
			c1.93,0.35,3.76,0.5,5.52,0.51c-0.72-2.87-1.73-5.68-2.97-8.41c-3.95-8.71-11.42-14.95-16.3-23.04c0,0,0,0.01,0,0.01
			c-7.83-10.53-11.68-24.41-8.53-37.4c0.99,0.38,0.02,4.3,0.32,5.85c2.07,24.11,28.62,39.52,32.46,62.53
			c19.36-3.74,27.29-29.81,34.98-55.17c4.31-14.21,8.38-27.62,14.37-36.85l0.12-0.17c7.69-9.53,18.42-12.5,30.21-8.38
			c16.23,5.68,29.51,23.23,29.61,39.13l0.01,1.93l-1.93,0.06c-17.09,0.49-36.35,1.93-48.74,12.92
			c-13.06,14.66-16.68,27.89-10.21,37.26c7.73,11.19,28.08,14.45,46.31,7.42C781.07,408.48,786.17,405.42,790.55,401.64z
			 M388.93,384.77c-0.63,2.91-1.93,4.58-3.87,4.95c-0.25,0.05-0.5,0.07-0.75,0.07c-3.62,0-7.67-4.86-12.57-12.11
			c-1.97-2.92-3.51-6.11-4.57-9.48c-10.9-34.55-7.12-52.62,0.06-58.01c3.43-2.58,7.74-2.5,11.81,0.22
			C388.96,317.03,399.77,342.3,388.93,384.77z M621.55,307.73c-0.33,1.45-1.27,2.67-2.57,3.36c-0.69,0.37-1.44,0.55-2.2,0.55
			c-0.55,0-1.11-0.1-1.63-0.3c-2.24-0.87-4.41-3.12-6.46-6.7c-3.95-6.91-5.02-15.33-2.93-23.09c1.92-7.12,4.89-7.97,7.05-7.43
			C619.2,275.7,624.34,295.5,621.55,307.73z M755.6,408.56c-1.16,0-2.29-0.14-3.35-0.45c-4.11-1.17-8.9-5.16-8.41-17.51
			c-1.54-20.12,13.14-30.89,27.42-34.26c5.13-1.21,10.4,0.33,14.09,4.12c3.67,3.77,5.07,9.05,3.73,14.12
			c-0.37,1.41-0.77,2.81-1.16,4.17c-0.81,2.83-1.57,5.51-1.85,7.49l-0.05,0.37l-0.18,0.32C780.43,396.56,766.28,408.56,755.6,408.56
			z"/>
	</g>
	<g>
		<path class="st2" d="M286.05,375.51C134.62,522.05-41.2,240.9,160.95,174.35c15.85-3.74,32-6.11,48.32-5.27
			c-0.47-0.09,0.47,0.07,0,0c4.9,0.19,7.33,0.73,12.25,0.62c-13.72-4.32-28.61-6.18-42.82-4.33l0,0
			c-14.49,0.75-28.93,3.86-42.55,8.88c-5.57,1.87-11.02,4.03-16.23,6.76C38.77,214.97,16.12,328.69,78.91,391.28
			c39.61,39.49,125.76,49.81,179.2,12.35c-20.59,17.96-46.04,26.53-72.64,27.66c-7.69,0.33-12.81,0.28-16.28,0
			c-221.24-17.73-143.75-320.83,67.66-262.06c-48.95-31.69-142.79-5.36-178.5,47.04c-25.77,33.44-35.56,79.14-23.97,119.88
			c0,0,0,0,0,0c6.65,27.57,23.72,52.65,46.09,69.84c34.33,27.45,82.11,37.05,124.81,28.31C238.16,430.01,277.23,402.6,286.05,375.51
			z M69.07,258.89C69.08,258.87,69.07,258.88,69.07,258.89C69.07,258.87,69.06,258.85,69.07,258.89z M148.33,422.13
			c0.01,0.01,0.02,0.02,0.03,0.03C148.34,422.16,148.31,422.16,148.33,422.13z M145.74,164.88
			C145.73,164.89,145.73,164.88,145.74,164.88C145.76,164.9,145.74,164.9,145.74,164.88z M264.42,398.61
			c-0.65,0.7-1.62,1.45-2.71,2.27C262.66,400.11,263.57,399.35,264.42,398.61z"/>
		<path class="st2" d="M103.43,220.15c10.4-15.17,30.59-28.38,42.81-36.39c-50.21,15.57-78.75,71.51-70.97,121.98v0
			c1.87,15.98,7.17,31.98,16.07,45.42c-15.54-31.72-16.55-69.09-5-102.28C90.75,238.34,97.15,228.72,103.43,220.15z"/>
		<path class="st2" d="M233.79,171.28c-8.17-0.92-24.05,0.11-24.05,0.11s2.19,0.57,3.17,0.94c27.23,10.3,52.16,29.24,54.86,59.17
			c0.38-0.86,0.65-1.45,0.9-2.04c10.13-16.04,3.4-36.18,14.07-52.08C269.64,176.78,248.95,173.49,233.79,171.28z"/>
	</g>
</g>
</svg>
