<svg width="32" height="32" viewBox="0 0 32 32" fill="none" xmlns="http://www.w3.org/2000/svg">
<circle cx="16" cy="16" r="16" fill="#D9D9D9"/>
<g clip-path="url(#clip0_121_3684)">
<path d="M15.9999 0C20.4181 0 24.418 1.79089 27.3136 4.68646C30.2091 7.58177 32 11.582 32 16C32 20.4185 30.2091 24.4182 27.3136 27.3135C24.418 30.2091 20.4181 32 15.9999 32C11.5817 32 7.58171 30.2091 4.68642 27.3135C1.79087 24.4182 0 20.4182 0 15.9997C0 11.5818 1.79087 7.58151 4.68642 4.6862C7.58171 1.79089 11.5817 0 15.9999 0ZM20.8748 9.73151C21.2136 9.39245 21.7634 9.39245 22.1022 9.73151C22.441 10.0703 22.441 10.6198 22.1022 10.9589L17.0603 16.001L22.1022 21.0432C22.441 21.382 22.441 21.9315 22.1022 22.2706C21.7634 22.6094 21.2136 22.6094 20.8748 22.2706L15.8327 17.2284L10.7905 22.2708C10.4517 22.6096 9.902 22.6096 9.5632 22.2708C9.2244 21.9318 9.2244 21.3823 9.5632 21.0435L14.6056 16.0013L9.5632 10.9589C9.2244 10.6198 9.2244 10.0703 9.5632 9.73151C9.902 9.39245 10.4517 9.39245 10.7905 9.73151L15.8329 14.7737L20.8748 9.73151ZM26.0862 5.91354C23.505 3.33229 19.9389 1.73594 15.9999 1.73594C12.0608 1.73594 8.49498 3.33229 5.91375 5.91354C3.33252 8.49479 1.73592 12.0609 1.73592 15.9997C1.73592 19.9388 3.33252 23.5049 5.91349 26.0862C8.49472 28.6672 12.0606 30.2638 15.9996 30.2638C19.9386 30.2638 23.5048 28.6672 26.086 26.0862C28.6672 23.5049 30.2638 19.9388 30.2638 15.9997C30.2641 12.0609 28.6675 8.49479 26.0862 5.91354Z" fill="#666666"/>
</g>
<defs>
<clipPath id="clip0_121_3684">
<rect width="32" height="32" fill="white"/>
</clipPath>
</defs>
</svg>
