<svg width="12" height="12" viewBox="0 0 12 12" fill="none" xmlns="http://www.w3.org/2000/svg">
<path d="M6.00056 0C4.37105 0 4.16654 0.00712512 3.52654 0.0362501C2.88778 0.0655001 2.45178 0.166625 2.07027 0.315C1.67564 0.46825 1.34089 0.67325 1.00739 1.00688C0.673632 1.34038 0.46863 1.67512 0.314878 2.06962C0.166127 2.45125 0.0648756 2.88738 0.0361253 3.52588C0.00750002 4.16587 0 4.3705 0 6C0 7.6295 0.00725019 7.83338 0.0362505 8.47338C0.0656258 9.11213 0.166752 9.54812 0.315003 9.92962C0.46838 10.3242 0.673382 10.659 1.00701 10.9925C1.34039 11.3263 1.67514 11.5318 2.06952 11.685C2.45128 11.8334 2.8874 11.9345 3.52604 11.9637C4.16604 11.9929 4.37042 12 5.99981 12C7.62945 12 7.83333 11.9929 8.47334 11.9637C9.11209 11.9345 9.5486 11.8334 9.93035 11.685C10.3249 11.5318 10.6591 11.3263 10.9925 10.9925C11.3262 10.659 11.5312 10.3243 11.685 9.92975C11.8325 9.54813 11.9337 9.112 11.9637 8.4735C11.9925 7.8335 12 7.6295 12 6C12 4.3705 11.9925 4.166 11.9637 3.526C11.9337 2.88725 11.8325 2.45125 11.685 2.06975C11.5312 1.67512 11.3262 1.34038 10.9925 1.00688C10.6587 0.673125 10.325 0.468125 9.92998 0.315C9.54747 0.166625 9.11122 0.0655001 8.47246 0.0362501C7.83246 0.00712512 7.6287 0 5.99869 0H6.00056ZM5.46231 1.08125C5.62206 1.081 5.80031 1.08125 6.00056 1.08125C7.60258 1.08125 7.79246 1.087 8.42509 1.11575C9.01009 1.1425 9.3276 1.24025 9.5391 1.32238C9.8191 1.43113 10.0187 1.56112 10.2286 1.77112C10.4386 1.98112 10.5686 2.18112 10.6776 2.46112C10.7597 2.67237 10.8576 2.98987 10.8842 3.57487C10.913 4.20738 10.9192 4.39737 10.9192 5.99862C10.9192 7.59987 10.913 7.78987 10.8842 8.42237C10.8575 9.00737 10.7597 9.32487 10.6776 9.53613C10.5689 9.81612 10.4386 10.0155 10.2286 10.2254C10.0186 10.4354 9.81923 10.5654 9.5391 10.6741C9.32785 10.7566 9.01009 10.8541 8.42509 10.8809C7.79258 10.9096 7.60258 10.9159 6.00056 10.9159C4.39842 10.9159 4.20854 10.9096 3.57604 10.8809C2.99103 10.8539 2.67353 10.7561 2.4619 10.674C2.1819 10.5652 1.9819 10.4353 1.77189 10.2253C1.56189 10.0153 1.43189 9.81575 1.32289 9.53563C1.24076 9.32438 1.14289 9.00688 1.11626 8.42188C1.08751 7.78937 1.08176 7.59937 1.08176 5.99712C1.08176 4.39487 1.08751 4.20588 1.11626 3.57338C1.14301 2.98838 1.24076 2.67087 1.32289 2.45937C1.43164 2.17937 1.56189 1.97937 1.77189 1.76937C1.9819 1.55937 2.1819 1.42937 2.4619 1.32037C2.6734 1.23787 2.99103 1.14038 3.57604 1.1135C4.12954 1.0885 4.34405 1.081 5.46231 1.07975V1.08125ZM9.20335 2.0775C8.80584 2.0775 8.48334 2.39962 8.48334 2.79725C8.48334 3.19475 8.80584 3.51725 9.20335 3.51725C9.60085 3.51725 9.92335 3.19475 9.92335 2.79725C9.92335 2.39975 9.60085 2.07725 9.20335 2.07725V2.0775ZM6.00056 2.91875C4.29892 2.91875 2.91928 4.29838 2.91928 6C2.91928 7.70162 4.29892 9.08062 6.00056 9.08062C7.7022 9.08062 9.08134 7.70162 9.08134 6C9.08134 4.29838 7.7022 2.91875 6.00056 2.91875ZM6.00056 4C7.10507 4 8.00058 4.89538 8.00058 6C8.00058 7.1045 7.10507 8 6.00056 8C4.89593 8 4.00054 7.1045 4.00054 6C4.00054 4.89538 4.89593 4 6.00056 4Z" fill="white"/>
</svg>
