<svg width="16" height="14" viewBox="0 0 16 14" fill="none" xmlns="http://www.w3.org/2000/svg">
<path d="M4.40703 5.75424C4.94487 6.60741 5.56476 7.42621 6.36958 8.17288C7.17699 8.92412 8.18106 9.6078 9.48074 10.1918C9.57711 10.2331 9.66827 10.2331 9.75032 10.2044C9.87403 10.1632 10.0004 10.0727 10.1241 9.96395C10.2204 9.87921 10.3403 9.74407 10.4653 9.59635C10.9654 9.01803 11.5839 8.29999 12.4578 8.65958C12.4773 8.6676 12.4916 8.67676 12.5112 8.68363L15.4257 10.1575C15.4348 10.1621 15.4452 10.1701 15.453 10.1747C15.8372 10.4071 15.9961 10.7656 16 11.1721C16 11.5855 15.8268 12.0505 15.5728 12.4433C15.2369 12.9621 14.742 13.3056 14.1716 13.5324C13.6285 13.7522 13.0243 13.8702 12.4434 13.9458C11.5318 14.0637 10.6775 13.9881 9.80371 13.7522C8.94941 13.5198 8.0886 13.1361 7.14834 12.6254L7.07932 12.5864C6.64826 12.3494 6.18205 12.0963 5.72494 11.7974C4.0528 10.6866 2.34811 9.08216 1.23726 7.31628C0.306119 5.8344 -0.201773 4.23458 0.0756143 2.71033C0.229284 1.87435 0.636901 1.11394 1.34795 0.612348C1.96784 0.172596 2.80261 -0.0678934 3.88351 0.0168505C4.00722 0.0248668 4.11792 0.0878522 4.17652 0.181758L6.04531 2.95998C6.31879 3.27147 6.35265 3.58067 6.20288 3.88988C6.07916 4.14296 5.82913 4.37658 5.48793 4.59417C5.38765 4.66975 5.26784 4.74648 5.14152 4.82664C4.72348 5.09347 4.24815 5.40152 4.41093 5.7634L4.40703 5.75424Z" fill="#7F9276"/>
</svg>
