<svg width="16" height="20" viewBox="0 0 16 20" fill="none" xmlns="http://www.w3.org/2000/svg">
<g clip-path="url(#clip0_58_321)">
<path fill-rule="evenodd" clip-rule="evenodd" d="M11.8825 17.2984C10.913 18.2961 9.78389 19.1896 8.51603 19.9123C8.35993 20.0197 8.14833 20.0327 7.97489 19.9286C6.10172 18.8104 4.5286 17.4676 3.29196 16.0077C1.5853 13.9992 0.511693 11.7727 0.143996 9.62747C-0.230638 7.45299 0.119715 5.35989 1.2731 3.65905C1.72752 2.98685 2.30855 2.37487 3.01619 1.8459C4.64308 0.630077 6.50064 -0.0128269 8.35299 0.00019394C10.136 0.0132148 11.8964 0.636587 13.4175 1.9403C13.9517 2.39603 14.4009 2.91849 14.7686 3.48489C16.0087 5.40221 16.2758 7.84687 15.7312 10.3241C15.1935 12.772 13.858 15.259 11.8825 17.2935V17.2984ZM7.99917 3.86738C10.1984 3.86738 11.9797 5.54056 11.9797 7.60273C11.9797 9.66653 10.1967 11.3381 7.99917 11.3381C5.79993 11.3381 4.01869 9.66653 4.01869 7.60273C4.01695 5.53893 5.79993 3.86738 7.99917 3.86738Z" fill="#7F9276"/>
</g>
<defs>
<clipPath id="clip0_58_321">
<rect width="16" height="20" fill="white"/>
</clipPath>
</defs>
</svg>
