<svg width="22" height="22" viewBox="0 0 22 22" fill="none" xmlns="http://www.w3.org/2000/svg">
<g clip-path="url(#clip0_167_336)">
<path d="M16.2017 6.34539C16.2017 6.1067 16.1069 5.87778 15.9381 5.70899C15.7693 5.54021 15.5404 5.44539 15.3017 5.44539L8.1017 5.40039C7.86301 5.40039 7.63409 5.49521 7.46531 5.66399C7.29652 5.83278 7.2017 6.0617 7.2017 6.30039C7.2017 6.53909 7.29652 6.768 7.46531 6.93679C7.63409 7.10557 7.86301 7.20039 8.1017 7.20039H13.1057L5.6627 14.6614C5.57835 14.7451 5.51139 14.8446 5.4657 14.9543C5.42001 15.0639 5.39648 15.1816 5.39648 15.3004C5.39648 15.4192 5.42001 15.5368 5.4657 15.6465C5.51139 15.7562 5.57835 15.8557 5.6627 15.9394C5.74637 16.0237 5.84591 16.0907 5.95558 16.1364C6.06526 16.1821 6.18289 16.2056 6.3017 16.2056C6.42051 16.2056 6.53815 16.1821 6.64782 16.1364C6.7575 16.0907 6.85704 16.0237 6.9407 15.9394L14.4017 8.47839V13.5004C14.4017 13.7391 14.4965 13.968 14.6653 14.1368C14.8341 14.3056 15.063 14.4004 15.3017 14.4004C15.5404 14.4004 15.7693 14.3056 15.9381 14.1368C16.1069 13.968 16.2017 13.7391 16.2017 13.5004V6.34539Z" fill="currentColor"/>
</g>
<defs>
<clipPath id="clip0_167_336">
<rect width="21.6" height="21.6" fill="white"/>
</clipPath>
</defs>
</svg>
