<svg width="18" height="24" viewBox="0 0 18 24" fill="none" xmlns="http://www.w3.org/2000/svg">
<g clip-path="url(#clip0_62_339)">
<path d="M17.803 7.35373C17.8604 7.4028 17.9072 7.46257 17.9409 7.52956C17.9745 7.59654 17.9942 7.66942 17.999 7.74395C18.0037 7.81848 17.9932 7.89319 17.9683 7.96374C17.9433 8.03429 17.9044 8.09928 17.8536 8.15493C17.6402 8.3892 17.2711 8.41122 17.0295 8.20366L9.58652 1.8259V23.4307C9.58652 23.7451 9.32393 24 9.00021 24C8.6765 24 8.4139 23.7451 8.4139 23.4307V1.8259L0.970874 8.20366C0.729283 8.41122 0.360211 8.3892 0.14679 8.15493C-0.0666322 7.92019 -0.0441919 7.56129 0.1974 7.35373L8.60392 0.1504C8.82117 -0.044981 9.16016 -0.0524776 9.38695 0.142435L17.803 7.35373Z" fill="#7F9276"/>
</g>
<defs>
<clipPath id="clip0_62_339">
<rect width="18" height="24" fill="white"/>
</clipPath>
</defs>
</svg>
