<svg width="12" height="8" viewBox="0 0 12 8" fill="none" xmlns="http://www.w3.org/2000/svg">
<g clip-path="url(#clip0_194_2251)">
<path fill-rule="evenodd" clip-rule="evenodd" d="M11.8779 1.72625C11.8779 1.72625 11.7607 0.942265 11.3994 0.597941C10.9434 0.14532 10.4316 0.142543 10.1973 0.115701C8.51953 0 5.99902 0 5.99902 0C5.99902 0 3.47949 0 1.7998 0.115701C1.56543 0.142543 1.05469 0.144394 0.597656 0.597941C0.234375 0.942265 0.119141 1.72625 0.119141 1.72625C0.044926 2.33779 0.00515601 2.95265 0 3.56821L0 4.42994C0.00524829 5.0455 0.045018 5.66035 0.119141 6.2719C0.119141 6.2719 0.236328 7.05588 0.594727 7.40484C1.05176 7.85838 1.65137 7.84357 1.91992 7.8917C2.87988 7.97871 6 8.00463 6 8.00463C6 8.00463 8.52246 8.00463 10.1992 7.88708C10.4346 7.86023 10.9453 7.85746 11.4023 7.40484C11.7627 7.06051 11.8799 6.2756 11.8799 6.2756C11.9541 5.66406 11.9939 5.0492 11.999 4.43365V3.56728C11.9925 2.95169 11.9518 2.33685 11.877 1.72533L11.8779 1.72625Z" fill="white"/>
<path fill-rule="evenodd" clip-rule="evenodd" d="M4.75684 5.47541V2.2793L7.99805 3.88244L4.75684 5.47541Z" fill="#7F9276"/>
</g>
<defs>
<clipPath id="clip0_194_2251">
<rect width="12" height="8" fill="white"/>
</clipPath>
</defs>
</svg>
