<svg width="36" height="36" viewBox="0 0 36 36" fill="none" xmlns="http://www.w3.org/2000/svg">
<g clip-path="url(#clip0_18_640)">
<path d="M14.7835 13.3945L18.6863 17.2764C19.0103 17.5986 19.0103 18.126 18.6863 18.4482C18.3623 18.7705 17.8321 18.7705 17.5081 18.4482L13.6053 14.5664L11.997 16.166L15.8998 20.0479C16.2239 20.3701 16.2239 20.8975 15.8998 21.2197C15.5758 21.542 15.0456 21.542 14.7216 21.2197L10.8188 17.3408L9.2106 18.9404L13.1134 22.8223C13.4374 23.1445 13.4374 23.6719 13.1134 23.9941C12.7894 24.3164 12.2592 24.3164 11.9352 23.9941L8.03239 20.1123L6.42415 21.7119L10.3269 25.5938C10.6509 25.916 10.6509 26.4434 10.3269 26.7656C10.0029 27.0879 9.47275 27.0879 9.14874 26.7656L5.24594 22.8838L4.97201 23.1562C4.23858 23.8857 3.87334 24.8467 3.87334 25.8076C3.87334 26.7686 4.23858 27.7324 4.97201 28.459L6.06479 29.5459C6.1561 29.5869 6.24152 29.6426 6.31811 29.7188C6.39175 29.7949 6.45066 29.8799 6.49189 29.9707L7.78792 31.2598C8.42709 31.8955 9.26951 32.2119 10.1149 32.2119C10.9602 32.2119 11.8026 31.8926 12.4418 31.2598L24.8836 18.8848L17.078 11.1211L14.7835 13.3945ZM17.7644 9.40723L18.5655 10.2041L23.0398 5.75391C22.4713 5.10352 22.1856 4.28906 22.1856 3.47461C22.1856 2.58398 22.5272 1.69336 23.2077 1.0166C23.8881 0.339844 24.7864 0 25.6819 0C26.5773 0 27.4727 0.339844 28.1532 1.0166L34.9808 7.80762C35.6583 8.48145 35.997 9.375 35.997 10.2656H36C36 11.1562 35.6583 12.0469 34.9779 12.7236C34.2975 13.4004 33.4021 13.7402 32.5066 13.7402C31.7378 13.7402 30.972 13.4912 30.3387 12.9932L25.8557 17.4551L26.6009 18.1963C26.6598 18.2549 26.7069 18.3223 26.7423 18.3926L28.4094 20.0508C28.7334 20.373 28.7334 20.9004 28.4094 21.2227C28.0854 21.5449 27.5552 21.5449 27.2312 21.2227L25.9116 19.9102L13.4698 32.2852C12.5449 33.2051 11.3284 33.665 10.1119 33.665C8.89543 33.665 7.67893 33.2051 6.75404 32.2852L5.83504 31.3711L1.42267 35.7568C1.09867 36.0791 0.568475 36.0791 0.244469 35.7568C-0.0795366 35.4346 -0.0795366 34.9072 0.244469 34.585L4.65684 30.1963L3.94108 29.4844C2.92488 28.4736 2.41531 27.1406 2.41531 25.8076C2.41531 24.4746 2.92488 23.1416 3.94108 22.1309L16.0412 10.0957L14.8571 8.91797C14.5331 8.5957 14.5331 8.06836 14.8571 7.74609C15.1811 7.42383 15.7113 7.42383 16.0353 7.74609L17.567 9.26953C17.6377 9.30176 17.7054 9.34863 17.7644 9.40723ZM33.6554 9.12598L26.8277 2.33496C26.5125 2.02148 26.0972 1.86621 25.6819 1.86621C25.2666 1.86621 24.8512 2.02148 24.5361 2.33496C24.2209 2.64844 24.0648 3.06152 24.0648 3.47461C24.0648 3.8877 24.2209 4.30078 24.5361 4.61426L31.3638 11.4053C31.6789 11.7188 32.0942 11.874 32.5096 11.874C32.9249 11.874 33.3402 11.7188 33.6554 11.4053C33.9705 11.0918 34.1266 10.6787 34.1266 10.2656H34.1296C34.1296 9.85254 33.9705 9.43945 33.6554 9.12598ZM28.9514 11.7363L24.3152 7.125L20.0648 11.3525L24.701 15.9639L28.9514 11.7363Z" fill="url(#paint0_linear_18_640)"/>
</g>
<defs>
<linearGradient id="paint0_linear_18_640" x1="-1.02381" y1="9.2583e-06" x2="56.4277" y2="1.42897" gradientUnits="userSpaceOnUse">
<stop offset="0.115385" stop-color="#7F9276"/>
<stop offset="1" stop-color="#7F9276"/>
</linearGradient>
<clipPath id="clip0_18_640">
<rect width="36" height="36" fill="white"/>
</clipPath>
</defs>
</svg>
