<svg width="29" height="36" viewBox="0 0 29 36" fill="none" xmlns="http://www.w3.org/2000/svg">
<g clip-path="url(#clip0_18_646)">
<path d="M19.0114 17.3525L25.4206 24.9199C26.357 26.0332 27.626 27.8262 28.3669 29.6191C28.8104 30.6943 29.0729 31.7812 28.9796 32.7598C28.8804 33.8467 28.3728 34.7725 27.2642 35.376C26.7129 35.6777 26.0157 35.8916 25.1493 35.9941C25.1201 35.9971 25.0938 36 25.0676 36H14.5073H3.94697C3.90321 36 3.86237 35.9971 3.81861 35.9883C2.96387 35.8828 2.27832 35.6719 1.73572 35.376C0.60968 34.7637 0.105002 33.832 0.0116517 32.7334C-0.0700302 31.752 0.207105 30.6533 0.668024 29.5664C1.46151 27.709 2.81217 25.8398 3.76319 24.709L9.95059 17.3496V8.39355C9.93017 8.29395 9.90392 8.19434 9.87766 8.09766C9.84265 7.97168 9.80473 7.84863 9.76097 7.72266C9.53926 7.08105 9.19795 6.44238 8.73411 5.83008C8.48907 5.50488 8.55616 5.04199 8.87706 4.79883C9.01125 4.69922 9.16586 4.64941 9.32047 4.64941H11.768C11.1846 4.28613 10.7966 3.63867 10.7966 2.89746C10.7966 1.76074 11.7155 0.837891 12.8474 0.837891C13.9793 0.837891 14.8982 1.76074 14.8982 2.89746C14.8982 3.63867 14.5102 4.28613 13.9268 4.64941H19.6912C20.0967 4.64941 20.4263 4.98047 20.4263 5.3877C20.4263 5.58691 20.3475 5.76855 20.2192 5.90039C19.9245 6.2373 19.6824 6.61816 19.487 7.03711C19.2886 7.45605 19.134 7.91602 19.0114 8.41406V17.3525ZM16.2634 21.8555H21.0885L17.7658 18.1494C17.6258 18.0146 17.5412 17.8271 17.5412 17.6191V8.33203C17.5412 8.27637 17.547 8.21777 17.5616 8.16211C17.7075 7.54395 17.9029 6.95801 18.1596 6.41309C18.2063 6.31641 18.253 6.22266 18.3026 6.12891H10.6595C10.852 6.49512 11.0154 6.87012 11.1466 7.25098C11.1992 7.40625 11.2487 7.56152 11.2896 7.7168C11.3275 7.85449 11.3596 7.98926 11.3888 8.12109C11.4092 8.18848 11.4179 8.25879 11.4179 8.33203V17.6221C11.4179 17.7891 11.3596 17.959 11.2429 18.0967C8.60867 21.2754 3.67567 26.4609 2.10913 30.1465C1.00934 32.209 1.82616 34.8574 4.06949 34.7637H14.5073H25.0326C25.6831 34.6816 26.1878 34.5322 26.567 34.3242C27.7777 33.8232 27.6872 30.709 27.1971 30.1816C27.1038 29.9561 27.0017 29.7334 26.8938 29.5078C26.8529 29.5166 26.8062 29.5225 26.7654 29.5225H19.662C19.2915 29.5225 18.9852 29.1768 18.9852 28.7549C18.9852 28.333 19.2886 27.9873 19.662 27.9873H26.0332C25.6773 27.4248 25.301 26.9004 24.9509 26.4463C24.9188 26.4521 24.8838 26.4551 24.8517 26.4551H19.5424C17.4799 26.4551 17.7512 24.9199 18.9677 24.9199H23.6848L22.3254 23.3174C22.2408 23.3613 22.1445 23.3877 22.0453 23.3877H16.2634C15.3708 23.3906 15.3708 21.8555 16.2634 21.8555ZM7.59348 7.53223C8.37238 7.53223 9.0025 8.16797 9.0025 8.94727C9.0025 9.72949 8.36946 10.3623 7.59348 10.3623C6.81459 10.3623 6.18447 9.72949 6.18447 8.94727C6.18155 8.16797 6.81459 7.53223 7.59348 7.53223ZM6.50245 0C7.88229 0 9.0025 1.125 9.0025 2.51074C9.0025 3.89648 7.88229 5.02148 6.50245 5.02148C5.12261 5.02148 4.0024 3.89648 4.0024 2.51074C4.0024 1.125 5.12261 0 6.50245 0Z" fill="url(#paint0_linear_18_646)"/>
</g>
<defs>
<linearGradient id="paint0_linear_18_646" x1="-0.828539" y1="9.25868e-06" x2="45.4652" y2="0.92759" gradientUnits="userSpaceOnUse">
<stop offset="0.115385" stop-color="#7F9276"/>
<stop offset="1" stop-color="#7F9276"/>
</linearGradient>
<clipPath id="clip0_18_646">
<rect width="29" height="36" fill="white"/>
</clipPath>
</defs>
</svg>
