<svg width="36" height="36" viewBox="0 0 36 36" fill="none" xmlns="http://www.w3.org/2000/svg">
<g clip-path="url(#clip0_18_649)">
<path d="M15.3378 14.2852H20.7508C20.9517 14.2852 21.1408 14.3262 21.3181 14.3965C21.4984 14.4697 21.6638 14.5811 21.7997 14.7158C21.9357 14.8506 22.0479 15.0146 22.1218 15.1934C22.1957 15.3662 22.2341 15.5566 22.2341 15.7559V17.2852H23.806C23.9448 17.2852 24.0719 17.3291 24.1783 17.4023C24.2846 17.4785 24.3674 17.5869 24.4117 17.71L27.2777 24.5361C27.5614 24.1494 27.8214 23.748 28.0548 23.3291C28.3178 22.8574 28.5483 22.3652 28.7403 21.8555C28.9796 21.2256 29.1658 20.5664 29.2899 19.8867C29.411 19.2246 29.4731 18.542 29.4731 17.8389C29.4731 16.582 29.2692 15.3721 28.891 14.2412C28.498 13.0693 27.9189 11.9854 27.1891 11.0186C26.5243 10.1396 25.7324 9.35742 24.8431 8.70117C23.9951 8.07715 23.0584 7.56445 22.0568 7.18945C22.0302 7.28027 21.9918 7.36816 21.9445 7.4502C21.8766 7.57324 21.7879 7.69043 21.6845 7.79004C21.5663 7.90723 21.4274 8.00391 21.2768 8.08301C21.132 8.15918 20.9724 8.21191 20.8099 8.24414C20.804 8.24707 20.7981 8.24707 20.7922 8.24707H20.7892C20.742 8.25586 20.6947 8.26172 20.6474 8.26758H20.6445C20.5942 8.27344 20.5469 8.27344 20.5056 8.27344H15.9524C15.9199 8.27344 15.8844 8.27344 15.849 8.27051C15.8165 8.26758 15.7781 8.26465 15.7367 8.25879C15.5594 8.23535 15.3881 8.18262 15.2285 8.10352C15.066 8.02441 14.9212 7.92187 14.7971 7.80176C14.673 7.67871 14.5666 7.53809 14.4928 7.38281C14.4396 7.27441 14.4012 7.15723 14.3805 7.03711C13.3257 7.38574 12.3388 7.88086 11.4465 8.49902C10.5039 9.15234 9.66481 9.94043 8.95568 10.8369C8.18155 11.8184 7.56697 12.9287 7.15036 14.1328C6.74852 15.293 6.52988 16.541 6.52988 17.8359C6.52988 18.5361 6.59192 19.2217 6.71307 19.8838C6.83716 20.5635 7.02331 21.2197 7.26264 21.8525C7.46356 22.3828 7.70289 22.8926 7.98063 23.3818C8.22882 23.8184 8.50361 24.2402 8.80499 24.6416L11.7981 17.6689C11.8483 17.5518 11.9311 17.4551 12.0315 17.3877C12.129 17.3232 12.2443 17.2881 12.3624 17.2822C12.3654 17.2852 12.3713 17.2852 12.3802 17.2852H13.8427V15.7676C13.8427 15.5684 13.8841 15.375 13.958 15.2021C14.0348 15.0205 14.1441 14.8564 14.283 14.7217C14.4219 14.584 14.5844 14.4756 14.7676 14.3994C14.9448 14.3232 15.1369 14.2852 15.3378 14.2852ZM21.5102 18.5537C21.4718 18.5654 21.4334 18.5713 21.3949 18.5771C21.3506 18.583 21.3033 18.5859 21.259 18.5859H14.8207C14.7764 18.5859 14.7292 18.583 14.6848 18.5771C14.6464 18.5713 14.6051 18.5625 14.5666 18.5537H12.8027L8.30269 29.0361H27.783L26.5538 26.1094C26.5361 26.0801 26.5184 26.0508 26.5066 26.0186C26.4918 25.9863 26.4829 25.9541 26.4741 25.9219L23.3805 18.5537H21.5102ZM6.74852 29.4199L8.22882 25.9717C7.77676 25.4355 7.36605 24.8643 7.00558 24.2549C6.63624 23.6367 6.32009 22.9834 6.06303 22.3008C5.79711 21.5977 5.59028 20.8652 5.45141 20.1094C5.3155 19.3711 5.24458 18.6123 5.24458 17.8389C5.24458 16.4004 5.48687 15.0146 5.93598 13.7256C6.39987 12.3896 7.08536 11.1533 7.94517 10.0605C8.7784 9.00293 9.78004 8.08008 10.9058 7.33008C11.9961 6.60645 13.2045 6.04394 14.4957 5.67773L15.0689 1.51465C13.3936 1.80762 11.804 2.34961 10.3414 3.09668C8.79908 3.8877 7.39265 4.90723 6.17531 6.11719C4.63296 7.64648 3.39199 9.47168 2.54399 11.499C1.73145 13.4561 1.27938 15.5977 1.27938 17.8418C1.27938 19.1191 1.42416 20.3613 1.69895 21.5537C1.9826 22.7812 2.40217 23.959 2.94288 25.0635C3.41858 26.0391 3.99179 26.9619 4.64478 27.8203C5.2564 28.623 5.93598 29.3672 6.67761 30.0439L6.69829 29.6367C6.70125 29.5986 6.7042 29.5605 6.71307 29.5254C6.72488 29.4902 6.7367 29.4551 6.74852 29.4199ZM15.1221 17.2852H20.9547V15.7559C20.9547 15.7295 20.9488 15.7031 20.9399 15.6797C20.9281 15.6562 20.9133 15.6328 20.8956 15.6152C20.8779 15.5977 20.8542 15.5801 20.8306 15.5713C20.807 15.5625 20.7804 15.5566 20.7538 15.5566H15.3378C15.3083 15.5566 15.2817 15.5625 15.2551 15.5742C15.2285 15.5859 15.2049 15.6006 15.1842 15.6211C15.1635 15.6416 15.1487 15.665 15.1369 15.6914C15.1251 15.7148 15.1221 15.7441 15.1221 15.7734V17.2852ZM27.8421 25.8838L29.3283 29.4258C29.346 29.4668 29.3578 29.5049 29.3638 29.5459C29.3726 29.5869 29.3756 29.6279 29.3756 29.6689L29.3903 29.9766C30.1408 29.2822 30.8263 28.5234 31.438 27.7031C32.0909 26.8271 32.6612 25.8867 33.1339 24.8936C33.6481 23.8096 34.0469 22.6611 34.3158 21.4629C34.5758 20.2998 34.7147 19.0869 34.7147 17.8418C34.7147 15.5947 34.2656 13.4531 33.4501 11.502C32.6021 9.47461 31.3611 7.64941 29.8188 6.12012C28.628 4.93945 27.2571 3.93457 25.7561 3.15234C24.3319 2.41113 22.7896 1.86914 21.1615 1.55859L21.9445 5.81543C23.1884 6.2168 24.3467 6.80273 25.3897 7.53809C26.4652 8.29688 27.4166 9.2168 28.2055 10.2656C29.0181 11.3408 29.6622 12.5479 30.0995 13.8516C30.522 15.1084 30.7495 16.4502 30.7495 17.8447C30.7495 18.6182 30.6786 19.377 30.5427 20.1152C30.4038 20.8711 30.197 21.6035 29.9311 22.3066C29.6799 22.9688 29.3726 23.6074 29.0181 24.2109C28.6753 24.7969 28.2794 25.3594 27.8421 25.8838ZM29.476 31.5937L29.6622 35.335C29.671 35.5107 29.606 35.6719 29.4967 35.792C29.3874 35.9121 29.2308 35.9912 29.0535 35.9971H29.0476C29.0417 36 29.0328 36 29.024 36H7.05581C6.87853 36 6.71898 35.9297 6.60374 35.8154L6.59783 35.8096C6.48555 35.6953 6.4176 35.54 6.4176 35.3672V35.3262L6.42055 35.2939L6.60079 31.6523C5.59915 30.8379 4.68615 29.918 3.88247 28.9131C3.07288 27.8965 2.36967 26.7949 1.7935 25.6172C1.21142 24.4248 0.756402 23.1592 0.452068 21.8379C0.156599 20.5518 0 19.2158 0 17.8418C0 15.4248 0.48457 13.1191 1.36211 11.0156C2.27511 8.83008 3.61064 6.86426 5.27118 5.2207C6.99672 3.50977 8.97341 2.20898 11.1244 1.33301C13.2991 0.451172 15.651 0 18.0946 0C20.4701 0 22.7807 0.46582 24.9169 1.35059C27.062 2.23828 29.0358 3.54492 30.7288 5.22363C32.3864 6.86719 33.7249 8.83301 34.6379 11.0186C35.5154 13.1221 36 15.4277 36 17.8447C36 19.1807 35.8523 20.4814 35.5686 21.7354C35.2791 23.0244 34.8477 24.2637 34.2922 25.4326C33.7249 26.625 33.0305 27.7471 32.2269 28.7754C31.4173 29.8125 30.4924 30.7588 29.476 31.5937ZM7.94517 30.3076L7.72653 34.7314H28.3503L28.1316 30.3076H7.94517ZM19.8319 1.3623C19.5424 1.33008 19.2528 1.30664 18.9603 1.29199C18.6441 1.27441 18.325 1.26562 18 1.26562C17.7104 1.26562 17.4238 1.27148 17.1461 1.28613C16.892 1.29785 16.6379 1.31836 16.3867 1.3418L15.716 6.20215C15.716 6.22559 15.7131 6.24902 15.7101 6.26953C15.7072 6.29297 15.7012 6.31641 15.6953 6.33984L15.6333 6.78516V6.81445C15.6362 6.82324 15.6392 6.83496 15.6451 6.84668C15.6569 6.86719 15.6717 6.8877 15.6924 6.9082C15.719 6.93457 15.7544 6.95801 15.7899 6.97559L15.7958 6.97852C15.8313 6.99316 15.8667 7.00488 15.9051 7.01074H15.9199H20.5056C20.5204 7.01074 20.5322 7.01074 20.544 7.01074L20.5765 7.00781C20.6149 6.99902 20.6504 6.98731 20.6858 6.96973C20.7213 6.95215 20.7567 6.92871 20.7833 6.89941C20.801 6.88184 20.8158 6.86426 20.8247 6.84668C20.8306 6.83496 20.8336 6.82617 20.8336 6.81738C20.8336 6.80859 20.8365 6.81738 20.8365 6.81152L20.8336 6.7998L19.8319 1.3623Z" fill="url(#paint0_linear_18_649)"/>
</g>
<defs>
<linearGradient id="paint0_linear_18_649" x1="-1.02532" y1="9.25868e-06" x2="56.4285" y2="1.42903" gradientUnits="userSpaceOnUse">
<stop offset="0.115385" stop-color="#7F9276"/>
<stop offset="1" stop-color="#7F9276"/>
</linearGradient>
<clipPath id="clip0_18_649">
<rect width="36" height="36" fill="white"/>
</clipPath>
</defs>
</svg>
