<svg width="36" height="36" viewBox="0 0 36 36" fill="none" xmlns="http://www.w3.org/2000/svg">
<g clip-path="url(#clip0_18_643)">
<path d="M24.9984 21.1697C25.792 21.5184 26.7384 21.6766 27.7819 21.6942C29.0163 21.7147 30.3919 21.5447 31.8175 21.2694C32.1643 21.202 32.4994 21.4305 32.564 21.7762C32.6316 22.1219 32.4024 22.4559 32.0555 22.5203C30.5595 22.8104 29.1016 22.9891 27.7613 22.9656C26.5327 22.9451 25.404 22.7518 24.437 22.3153C23.7933 22.992 23.4406 23.8944 23.3877 24.8143C23.3612 25.3006 23.4171 25.7899 23.5611 26.2528C23.7022 26.7098 23.9285 27.1434 24.2401 27.5154C24.872 28.2742 25.8743 28.8133 27.2646 28.8924H27.2822C28.1522 28.9656 28.9282 28.8631 29.616 28.6024C30.3037 28.3416 30.918 27.9197 31.4677 27.3572C33.196 25.5789 34.1953 22.7254 34.5598 19.7078C34.9742 16.2889 34.5745 12.6912 33.5017 10.1922C32.9197 8.83576 32.1202 7.61408 31.0885 6.66193C30.1656 5.80939 29.0575 5.17072 27.7495 4.84259C26.8031 4.60529 25.9301 4.63166 25.1747 4.93341C24.4399 5.22638 23.7933 5.78302 23.273 6.61799C22.9438 7.1424 22.7028 7.76935 22.5559 8.43732C22.3295 9.46271 22.3325 10.5701 22.5911 11.5428C22.838 12.4627 23.3142 13.2567 24.0519 13.7137C24.3135 13.8778 24.6104 13.9979 24.9455 14.0711C25.6921 14.2352 26.4945 14.0184 27.1793 13.5057C27.873 12.9871 28.4461 12.1668 28.7342 11.1238C28.8282 10.7869 29.178 10.5877 29.519 10.6815C29.857 10.7752 30.0568 11.1238 29.9628 11.4637C29.5954 12.7879 28.8517 13.8426 27.9435 14.5223C27.1323 15.1317 26.1888 15.4451 25.2541 15.3953C24.9572 15.8787 24.7779 16.3768 24.7221 16.8338C24.6663 17.3084 24.7456 17.7215 24.9719 17.9969C25.2159 18.2899 25.648 18.3485 26.1241 18.2869C26.9912 18.1727 27.9523 17.6746 28.4961 17.2996C28.7871 17.1004 29.1839 17.1737 29.3838 17.4608C29.5836 17.7508 29.5101 18.1463 29.2221 18.3455C28.5637 18.7967 27.3851 19.4002 26.2917 19.5467C25.9889 19.5877 25.6921 19.5936 25.4069 19.5584C25.3011 19.8162 25.2159 20.077 25.1483 20.3319C25.0719 20.6072 25.0219 20.8885 24.9984 21.1697ZM11.7659 22.2654C11.8717 22.5262 11.9628 22.7899 12.0392 23.0535C13.0621 21.3924 13.8351 20.2117 14.8756 19.8426C14.8785 19.6522 14.8785 19.4647 14.8815 19.2742C14.564 19.2508 13.8351 19.7166 13.2296 20.1033C12.9945 20.2528 12.7711 20.3963 12.5653 20.5106C12.533 21.0848 12.3478 21.6033 12.0039 22.0164C11.9305 22.1102 11.8511 22.1922 11.7659 22.2654ZM12.5271 24.6971C13.3589 25.5965 13.8175 26.7684 13.8851 27.9578C13.9203 28.5906 13.8468 29.2322 13.6587 29.8387C13.4677 30.451 13.162 31.0311 12.7387 31.5408C11.8952 32.5516 10.596 33.2694 8.82366 33.3748C7.76259 33.4656 6.80439 33.3338 5.93437 33.0057C5.06435 32.6776 4.29427 32.1531 3.61824 31.4559C1.67539 29.4608 0.564353 26.3406 0.167553 23.0711C-0.273335 19.4471 0.164614 15.6033 1.31974 12.908C1.96932 11.3963 2.87167 10.0223 4.03855 8.94416C5.11432 7.95099 6.41053 7.20392 7.93601 6.82013C9.1411 6.51838 10.2757 6.56232 11.2897 6.96662C12.2832 7.36213 13.1385 8.08869 13.8057 9.15802C14.1349 9.68244 14.3906 10.2801 14.5699 10.9158C14.3759 8.52521 14.082 6.11701 13.6852 3.69416C13.6617 3.54474 13.6264 3.38654 13.5941 3.22834C13.3736 2.16486 13.1649 1.16877 14.4171 0.368961C14.7404 0.163883 15.1078 0.040836 15.4781 0.0115391C15.8397 -0.0206874 16.2071 0.0379063 16.5421 0.181461C16.889 0.333805 17.1917 0.576969 17.4122 0.919742C17.5915 1.19806 17.712 1.53791 17.7502 1.93634C17.9912 3.37482 18.194 4.82502 18.3645 6.29279C18.4145 5.60724 18.4674 4.92463 18.5203 4.24201C18.5408 4.00177 18.5467 3.79084 18.5555 3.57404C18.6084 2.0008 18.6702 0.169742 20.8011 0.0379063C20.9569 0.0291172 21.1156 0.0349766 21.2743 0.0613438C21.8181 0.149234 22.3442 0.448063 22.7469 1.04279C23.0967 1.56427 23.3524 2.32013 23.4171 3.37775C23.4376 3.72052 23.4406 4.10138 23.42 4.52033C23.8168 4.1922 24.2459 3.94025 24.7074 3.75568C25.7214 3.35138 26.856 3.30744 28.0611 3.6092C29.5866 3.99298 30.8828 4.73713 31.9585 5.73322C33.1254 6.81427 34.0278 8.18537 34.6774 9.69709C35.8325 12.3924 36.2704 16.2332 35.8295 19.8602C35.4327 23.1297 34.3217 26.2498 32.3818 28.2479C31.7028 28.9451 30.9357 29.4695 30.0657 29.7977C29.1956 30.1258 28.2374 30.2547 27.1764 30.1668C25.404 30.0613 24.1049 29.3465 23.2613 28.3328C22.838 27.8231 22.5324 27.243 22.3413 26.6307C22.1532 26.0213 22.0768 25.3826 22.115 24.7498C22.1885 23.449 22.7293 22.1688 23.7169 21.2459C23.7198 21.1756 23.7257 21.1053 23.7316 21.035C23.1496 20.8944 22.8057 20.8445 22.0621 21.0086C22.0239 21.0174 21.9827 21.0233 21.9445 21.0233L20.8452 33.3543C20.8452 33.3631 20.8452 33.3719 20.8423 33.3807C20.8276 33.5418 20.7894 33.7674 20.7423 34.0164C20.6983 34.2537 20.6453 34.5145 20.5954 34.7547C20.519 35.1268 20.2838 35.4608 19.9811 35.6834C19.7724 35.8358 19.5226 35.9442 19.261 35.9793C18.9759 36.0174 18.6819 35.9735 18.4086 35.8182C18.1617 35.6805 17.9442 35.4578 17.7825 35.1297C17.5121 35.4813 17.177 35.7215 16.8184 35.8592C16.4834 35.991 16.1306 36.0291 15.7926 35.9881C15.4517 35.9471 15.1254 35.827 14.8374 35.6336C14.1702 35.1854 13.7263 34.3621 13.8851 33.2781V33.2694C14.4053 29.3436 14.7463 25.3651 14.8521 21.3338C14.3054 21.8143 13.7087 22.784 12.9386 24.0379C12.8005 24.2547 12.6594 24.4832 12.5271 24.6971ZM14.7903 14.3699C14.7521 14.6102 14.7022 14.8475 14.6404 15.0789C14.4788 15.6824 14.2348 16.2479 13.9056 16.7459C13.9527 16.7488 14.0026 16.7518 14.0526 16.7518C14.3083 16.7547 14.5787 16.7225 14.8638 16.6756C14.8491 15.908 14.8256 15.1404 14.7903 14.3699ZM12.8945 17.824C12.8064 17.8885 12.7152 17.95 12.6241 18.0086C12.4419 18.1229 12.2479 18.2225 12.0421 18.3074C12.1832 18.5828 12.2979 18.8612 12.386 19.1395C12.4389 19.1072 12.4919 19.0721 12.5448 19.0369C13.2796 18.5682 14.1261 18.0262 14.8844 18.0115V17.9588C14.6022 17.9998 14.323 18.0233 14.0526 18.0233C13.644 18.0174 13.2561 17.9588 12.8945 17.824ZM10.7459 18.6063C9.81125 18.6561 8.86775 18.3426 8.05651 17.7332C7.14829 17.0535 6.40465 15.9988 6.03725 14.6746C5.94319 14.3377 6.14306 13.9861 6.48107 13.8924C6.81909 13.7986 7.1718 13.9979 7.26586 14.3348C7.5539 15.3778 8.12706 16.1951 8.82072 16.7166C9.50557 17.2293 10.305 17.4461 11.0546 17.282C11.3896 17.2088 11.6865 17.0858 11.9481 16.9246C12.6858 16.4676 13.162 15.6737 13.4089 14.7537C13.6676 13.7811 13.6676 12.6766 13.4442 11.6483C13.2972 10.9803 13.0562 10.3533 12.727 9.82892C12.2067 8.99689 11.5601 8.43732 10.8253 8.14435C10.0699 7.84259 9.19695 7.81623 8.25051 8.05353C6.94548 8.38166 5.83444 9.02033 4.91151 9.87287C3.87983 10.8279 3.08036 12.0496 2.49838 13.4031C1.42555 15.9022 1.02582 19.4998 1.44025 22.9188C1.80766 25.9363 2.80407 28.7899 4.53235 30.5682C5.08199 31.1336 5.69629 31.5555 6.38408 31.8133C7.0748 32.074 7.84783 32.1766 8.71785 32.1033H8.73548C10.1258 32.0242 11.1251 31.4852 11.76 30.7264C12.0715 30.3514 12.2979 29.9207 12.4389 29.4637C12.583 29.0037 12.6388 28.5145 12.6094 28.0281C12.5565 27.1082 12.2038 26.2059 11.5601 25.5291C10.5931 25.9656 9.46442 26.159 8.23581 26.1795C6.89551 26.2029 5.43764 26.0242 3.94156 25.7342C3.59473 25.6668 3.3684 25.3358 3.43307 24.9901C3.50067 24.6444 3.83281 24.4188 4.17964 24.4832C5.60518 24.7586 6.98075 24.9315 8.21523 24.908C9.25867 24.8904 10.2051 24.7322 10.9987 24.3836C10.9752 24.1024 10.9252 23.824 10.8517 23.5428C10.7841 23.285 10.696 23.0272 10.5931 22.7694C10.308 22.8045 10.0111 22.7987 9.70838 22.7576C8.61203 22.6112 7.43339 22.0106 6.77794 21.5565C6.48695 21.3572 6.41641 20.9617 6.61628 20.6717C6.81615 20.3817 7.21295 20.3113 7.50394 20.5106C8.0477 20.8856 9.00883 21.3836 9.87591 21.4979C10.3521 21.5623 10.7841 21.5037 11.0281 21.2078C11.2544 20.9354 11.3367 20.5194 11.2779 20.0447C11.2221 19.5906 11.0428 19.0926 10.7459 18.6063ZM16.4775 2.05353C16.4628 1.86603 16.4128 1.71662 16.3393 1.60529C16.2629 1.48517 16.1542 1.39728 16.0337 1.34455C15.9014 1.28595 15.7456 1.26545 15.5839 1.27716C15.4164 1.29181 15.2518 1.34455 15.1078 1.43537C14.5934 1.76349 14.7139 2.3465 14.8433 2.96466C14.8785 3.13459 14.9138 3.30451 14.9432 3.48615C15.7868 8.62189 16.1571 13.6961 16.1542 18.6942C16.1512 23.6893 15.7809 28.6024 15.1401 33.4276C15.1401 33.4393 15.1372 33.4481 15.1342 33.4598C15.0578 33.9901 15.2489 34.3768 15.5399 34.5731C15.6574 34.6522 15.7926 34.702 15.9308 34.7196C16.0689 34.7371 16.21 34.7196 16.3423 34.6697C16.7156 34.5262 17.0389 34.0955 17.1212 33.2987C17.3357 30.7117 17.5062 28.1453 17.6179 25.6053C17.6297 22.8865 17.6796 20.2381 17.7619 17.6395C17.7619 17.5311 17.759 17.4227 17.759 17.3143C17.6914 12.1111 17.3034 7.02814 16.4804 2.1092C16.4834 2.08869 16.4804 2.07111 16.4775 2.05353ZM19.0435 17.6658C19.0699 20.3172 19.017 22.9949 18.8994 25.6932C18.8936 26.9471 18.8965 28.2186 18.9082 29.5018C18.9112 30.0379 18.8671 30.6356 18.8201 31.2567C18.729 32.4813 18.629 33.8113 18.8847 34.4764C18.9347 34.6053 18.9847 34.6756 19.0346 34.702C19.0493 34.7108 19.067 34.7108 19.0905 34.7078C19.1346 34.702 19.1816 34.6785 19.2257 34.6463C19.2904 34.5994 19.3344 34.5438 19.3462 34.4881C19.3932 34.2567 19.4461 34.0047 19.4873 33.7733C19.5284 33.5535 19.5608 33.3631 19.5725 33.2459L19.5755 33.2254L21.4184 12.5828C21.4272 12.4861 21.4566 12.3953 21.5036 12.3162C21.4507 12.1639 21.4037 12.0115 21.3625 11.8533C21.051 10.6844 21.048 9.36603 21.3126 8.15607C21.4566 7.50568 21.677 6.88166 21.971 6.32502C21.9592 6.25763 21.9563 6.18439 21.968 6.11115C22.1444 5.02424 22.1914 4.14533 22.1473 3.4422C22.0973 2.62775 21.9239 2.08283 21.6917 1.73713C21.5095 1.46759 21.292 1.33576 21.0774 1.30353C21.0157 1.29474 20.951 1.29181 20.8834 1.29474C19.9076 1.35627 19.8664 2.5633 19.8312 3.60041C19.8224 3.86994 19.8135 4.13361 19.7959 4.3299C19.4726 8.36408 19.2316 12.4158 19.0817 16.5584C19.067 16.9334 19.0552 17.2996 19.0435 17.6658ZM22.5588 14.1209L22.309 16.9188C22.7322 16.8748 23.0555 16.907 23.4288 16.9832C23.4318 16.8836 23.4406 16.784 23.4523 16.6815C23.5141 16.1658 23.6845 15.6238 23.9608 15.0906C23.7551 15.0057 23.5611 14.9061 23.3789 14.7918C23.0732 14.6014 22.7998 14.3758 22.5588 14.1209ZM24.2342 19.0516C24.1489 18.9783 24.0696 18.8963 23.9932 18.8055C23.8785 18.6678 23.7815 18.5184 23.7022 18.3572C23.1084 18.2078 22.7792 18.1287 22.1943 18.2195L22.0621 19.7049C22.8851 19.5496 23.3113 19.6141 23.9785 19.7781C24.049 19.532 24.1372 19.2889 24.2342 19.0516Z" fill="url(#paint0_linear_18_643)"/>
</g>
<defs>
<linearGradient id="paint0_linear_18_643" x1="-1.02627" y1="0.00293895" x2="56.4261" y2="1.43185" gradientUnits="userSpaceOnUse">
<stop offset="0.115385" stop-color="#7F9276"/>
<stop offset="1" stop-color="#7F9276"/>
</linearGradient>
<clipPath id="clip0_18_643">
<rect width="36" height="36" fill="white"/>
</clipPath>
</defs>
</svg>
